<svg xmlns="http://www.w3.org/2000/svg" viewBox="0 0 355.1057 112.7077"><defs><style>.a{fill:#dbbd26;}.b{fill:#fff;}</style></defs><title>blend-logo</title><path class="a" d="M54.6992,33.9141A24.0472,24.0472,0,0,1,61.2173,42.03,24.1967,24.1967,0,0,1,61.73,61.9574a23.8444,23.8444,0,0,1-12.7809,12.79,23.3378,23.3378,0,0,1-9.3406,1.9H2.4472V40.2837H39.6087a11.6817,11.6817,0,0,1,4.7733.976,12.8276,12.8276,0,0,1,6.57,6.5744,12.1826,12.1826,0,0,1,0,9.5529,12.8279,12.8279,0,0,1-6.57,6.5744,11.658,11.658,0,0,1-4.7733.9747H13.9445V46.3447h-5.44V70.5875H39.6087a17.75,17.75,0,0,0,6.98-1.387,17.2893,17.2893,0,0,0,5.6968-3.8523,19.03,19.03,0,0,0,3.85-5.7525,17.686,17.686,0,0,0,0-13.97,19.0789,19.0789,0,0,0-3.85-5.7525A17.9448,17.9448,0,0,0,46.5891,35.97a17.2405,17.2405,0,0,0-6.98-1.4388H2.4472V1.3509H34.579a22.0811,22.0811,0,0,1,8.7253,1.7473,22.4392,22.4392,0,0,1,12.01,12.0184,22.1172,22.1172,0,0,1,1.7461,8.7312,23.08,23.08,0,0,1-2.3614,10.0662M8.5041,28.47h5.44V12.96H34.579a10.1033,10.1033,0,0,1,4.2085.88,11.2114,11.2114,0,0,1,3.3872,2.3244,11.3257,11.3257,0,0,1,2.31,3.4122,10.333,10.333,0,0,1,.8731,4.2379,10.6666,10.6666,0,0,1-1.2319,5.1688,15.1154,15.1154,0,0,1,2.772.6675q1.3335.4649,2.6683.9774a16.2832,16.2832,0,0,0,1.4365-6.78,15.9452,15.9452,0,0,0-1.2823-6.37,16.6922,16.6922,0,0,0-8.7771-8.783A15.9134,15.9134,0,0,0,34.579,7.412H8.5041Zm27.4091,0a4.8225,4.8225,0,0,0,2.4637-1.7978A4.7328,4.7328,0,0,0,39.3,23.8479a4.67,4.67,0,0,0-1.386-3.4414,4.5485,4.5485,0,0,0-3.3354-1.387H20.0014V28.47ZM20.0014,58.8776H39.6087a6.1026,6.1026,0,0,0,4.4131-1.7992,6.3239,6.3239,0,0,0,0-8.9359,6.107,6.107,0,0,0-4.4131-1.7979H20.0014Z" transform="translate(-2.4472 -1.1461)"/><path class="a" d="M93.8594,58.9788H122.5v6.0623H75.9968V1.3509h6.0569V58.9788h5.7486V1.3509h6.057V58.9788M75.9968,70.5875H122.5v6.06H75.9968Z" transform="translate(-2.4472 -1.1461)"/><path class="a" d="M137.5881,1.4534V1.3509H187.99V7.412H143.6438V31.4488h5.44V12.856H187.99v6.061h-32.848V31.4488h13.96V37.51H137.5881V1.4534m17.5543,47.6639v9.76H187.99v6.0584H137.5881V43.0575H169.102v6.06Zm-17.5543,21.47H187.99v6.06H137.5881Zm6.0557-11.71h5.44v-9.76h-5.44Z" transform="translate(-2.4472 -1.1461)"/><path class="a" d="M266.2934,1.3509H272.35V62.1634L209.219,13.473V76.6473h-6.0556V1.1461l51.53,39.7532V1.3509h6.0557V45.5229l5.544,4.3138V1.3509m-51.53,23.2149,57.5874,44.48V76.751L220.8172,36.8941V76.6473H214.763Z" transform="translate(-2.4472 -1.1461)"/><path class="a" d="M319.8783,1.2486a36.1927,36.1927,0,0,1,14.6281,2.9787,38.9966,38.9966,0,0,1,11.96,8.065,37.7661,37.7661,0,0,1,8.11,11.9678,36.6056,36.6056,0,0,1,2.9767,14.6885,36.2446,36.2446,0,0,1-2.9767,14.638,38.358,38.358,0,0,1-20.07,20.082,36.1688,36.1688,0,0,1-14.6281,2.9787h-31.207v-6.06h31.207a30.9732,30.9732,0,0,0,12.3185-2.4614,31.6523,31.6523,0,0,0,16.8353-16.82A30.8743,30.8743,0,0,0,351.4958,39a30.96,30.96,0,0,0-2.4584-12.3069,31.7838,31.7838,0,0,0-6.7639-10.0517A32.5035,32.5035,0,0,0,332.23,9.8229,30.285,30.285,0,0,0,319.9354,7.311H294.7284V58.8776h5.338V12.856h19.812A25.31,25.31,0,0,1,329.99,14.9105,26.1084,26.1084,0,0,1,343.9,28.83a26.1,26.1,0,0,1,0,20.2868,25.9732,25.9732,0,0,1-5.5945,8.2192,26.8211,26.8211,0,0,1-8.316,5.5464,25.2868,25.2868,0,0,1-10.1113,2.0532h-31.207V1.2486h31.207m-13.755,57.6291h13.755a19.5384,19.5384,0,0,0,7.8017-1.5891,19.7386,19.7386,0,0,0,6.3652-4.3017,21,21,0,0,0,4.26-6.3523,19.1277,19.1277,0,0,0,1.5906-7.7378,19.4808,19.4808,0,0,0-1.5906-7.7858A19.6945,19.6945,0,0,0,327.68,20.5062a19.5394,19.5394,0,0,0-7.8017-1.5891h-13.755Z" transform="translate(-2.4472 -1.1461)"/><path class="b" d="M51.5552,94.5751V101.7a5.6336,5.6336,0,0,1,3.3633-1.0625,5.7971,5.7971,0,0,1,3.0431.8232,5.59,5.59,0,0,1,2.1235,2.3164,7.27,7.27,0,0,1,.7561,3.3324,6.5465,6.5465,0,0,1-1.8657,4.9374,7.0269,7.0269,0,0,1-5.1055,1.8071,15.427,15.427,0,0,1-5.6636-1.0771V94.5751h3.3488m0,16.376a7.7256,7.7256,0,0,0,2.5062.3683,2.9783,2.9783,0,0,0,2.4438-1.1236,4.8387,4.8387,0,0,0,.9049-3.1143,4.2715,4.2715,0,0,0-.9116-2.867,3.0116,3.0116,0,0,0-2.41-1.07,3.1283,3.1283,0,0,0-1.28.2593,5.5967,5.5967,0,0,0-1.2531.8032Z" transform="translate(-2.4472 -1.1461)"/><path class="b" d="M69.2011,100.6374a5.6977,5.6977,0,0,1,4.4384,1.7992,7.123,7.123,0,0,1,1.6345,4.972v.504h-9a3.911,3.911,0,0,0,1.273,2.6222,4.3512,4.3512,0,0,0,2.9342.92,6.5006,6.5006,0,0,0,2.3069-.4162,10.0251,10.0251,0,0,0,2.2949-1.2593v2.4933a9.1329,9.1329,0,0,1-5.4191,1.5811,6.8488,6.8488,0,0,1-4.9154-1.8124,6.3426,6.3426,0,0,1-1.9056-4.8231,6.5674,6.5674,0,0,1,1.7634-4.7419,6.0787,6.0787,0,0,1,4.5952-1.8391m2.9261,5.2446a3.67,3.67,0,0,0-.8438-2.1715,2.49,2.49,0,0,0-1.9468-.7845,2.7876,2.7876,0,0,0-2.0345.75,3.6844,3.6844,0,0,0-.974,2.2061Z" transform="translate(-2.4472 -1.1461)"/><path class="b" d="M85.1713,100.6374a3.1036,3.1036,0,0,1,1.3142.2992,7.3754,7.3754,0,0,1,1.5043,1.008l-1.1973,2.9308a4.4152,4.4152,0,0,0-2.3428-1.09,2.5038,2.5038,0,0,0-1.5321.58,4.1339,4.1339,0,0,0-1.2106,1.5318,4.3864,4.3864,0,0,0-.4558,1.9069v5.8044h-3.35V100.8835h3.35v3.2419h.0544a8.835,8.835,0,0,1,1.8379-2.6648,2.992,2.992,0,0,1,2.0278-.8232" transform="translate(-2.4472 -1.1461)"/><rect class="b" x="87.2183" y="93.4289" width="3.3487" height="19.0328"/><path class="b" d="M98.2551,94.9965a1.9063,1.9063,0,0,1,1.8923,1.8936,1.8749,1.8749,0,0,1-.55,1.33,1.8292,1.8292,0,0,1-2.67,0,1.8521,1.8521,0,0,1-.5647-1.33,1.792,1.792,0,0,1,.5714-1.34,1.847,1.847,0,0,1,1.3208-.5532m-1.6743,5.8869h3.35v12.7244h-3.35Z" transform="translate(-2.4472 -1.1461)"/><path class="b" d="M110.7544,100.6374a4.1832,4.1832,0,0,1,3.261,1.3431,5.0537,5.0537,0,0,1,1.2186,3.5345v8.0929h-3.3355v-7.7525a3.004,3.004,0,0,0-.5926-1.9614,1.9759,1.9759,0,0,0-1.6133-.722,2.5647,2.5647,0,0,0-1.4564.4561,6.8431,6.8431,0,0,0-1.4976,1.5186v8.4612h-3.35V100.8835h3.35v1.7832a5.9682,5.9682,0,0,1,1.8989-1.5585,4.78,4.78,0,0,1,2.1169-.4708" transform="translate(-2.4472 -1.1461)"/><path class="b" d="M126.2211,94.5751h3.35v19.0328h-3.35Zm12.5816,6.3084-5.1613,6.28,5.8005,6.444h-4.2484l-5.5679-6.444,5.241-6.28Z" transform="translate(-2.4472 -1.1461)"/><path class="b" d="M142.45,94.9965a1.9063,1.9063,0,0,1,1.8923,1.8936,1.8749,1.8749,0,0,1-.55,1.33,1.8292,1.8292,0,0,1-2.67,0,1.8522,1.8522,0,0,1-.5648-1.33,1.792,1.792,0,0,1,.5715-1.34,1.8448,1.8448,0,0,1,1.3208-.5532m-1.6743,5.8869h3.35v12.7244h-3.35Z" transform="translate(-2.4472 -1.1461)"/><path class="b" d="M151.0694,97.5044h.2724v3.379h4.3574v2.5331h-4.3574v5.8723a1.8056,1.8056,0,0,0,1.9335,1.9215,5.7562,5.7562,0,0,0,2.6963-.8444v2.6834a8.4475,8.4475,0,0,1-3.4046.8045,4.612,4.612,0,0,1-3.3567-1.1728,4.2247,4.2247,0,0,1-1.2052-3.1742v-6.09h-1.9867v-.5452l5.051-5.3669" transform="translate(-2.4472 -1.1461)"/><path class="b" d="M163.978,100.6374a9.1736,9.1736,0,0,1,4.0144.8591v2.847a6.7665,6.7665,0,0,0-3.3766-1.0359,3.826,3.826,0,0,0-2.8026,1.0705,4.35,4.35,0,0,0,.0054,5.7685,3.9576,3.9576,0,0,0,2.9195,1.09,9.4322,9.4322,0,0,0,3.4856-.899v2.7114a10.7242,10.7242,0,0,1-4.07.8045,7.1333,7.1333,0,0,1-5.0178-1.7712,6.0823,6.0823,0,0,1-1.9255-4.7007,6.5423,6.5423,0,0,1,1.8856-4.8909,6.6668,6.6668,0,0,1,4.8823-1.8537" transform="translate(-2.4472 -1.1461)"/><path class="b" d="M174.0785,94.5751v8.0916h.0824a4.8568,4.8568,0,0,1,3.9082-2.0293,4.245,4.245,0,0,1,3.2676,1.3351,4.9277,4.9277,0,0,1,1.2372,3.488v8.1474H179.24V106.1a3.171,3.171,0,0,0-.606-2.0372,2.0054,2.0054,0,0,0-1.6544-.7553,2.5956,2.5956,0,0,0-1.4365.4362,6.4592,6.4592,0,0,0-1.4644,1.4441v8.42H170.73V94.5751h3.3487" transform="translate(-2.4472 -1.1461)"/><path class="b" d="M191.5079,100.6374a5.7014,5.7014,0,0,1,4.4384,1.7992,7.1154,7.1154,0,0,1,1.6319,4.972v.504H188.58a3.9155,3.9155,0,0,0,1.2717,2.6222,4.3568,4.3568,0,0,0,2.9354.92,6.5054,6.5054,0,0,0,2.3069-.4162,10.0254,10.0254,0,0,0,2.295-1.2593v2.4933a9.1431,9.1431,0,0,1-5.4205,1.5811,6.8488,6.8488,0,0,1-4.9154-1.8124,6.3464,6.3464,0,0,1-1.9043-4.8231,6.5668,6.5668,0,0,1,1.7621-4.7419,6.08,6.08,0,0,1,4.5965-1.8391m2.9275,5.2446a3.6716,3.6716,0,0,0-.8465-2.1715,2.4913,2.4913,0,0,0-1.9468-.7845,2.7894,2.7894,0,0,0-2.0344.75,3.6762,3.6762,0,0,0-.9728,2.2061Z" transform="translate(-2.4472 -1.1461)"/><path class="b" d="M207.5712,100.6374a4.1879,4.1879,0,0,1,3.2623,1.3431,5.0525,5.0525,0,0,1,1.2173,3.5345v8.0929h-3.3355v-7.7525a3.003,3.003,0,0,0-.5913-1.9614,1.9748,1.9748,0,0,0-1.6146-.722,2.5681,2.5681,0,0,0-1.4564.4561,6.871,6.871,0,0,0-1.4976,1.5186v8.4612h-3.35V100.8835h3.35v1.7832a5.9865,5.9865,0,0,1,1.9-1.5585,4.7745,4.7745,0,0,1,2.1156-.4708" transform="translate(-2.4472 -1.1461)"/><path class="b" d="M227.6157,100.6374a5.8544,5.8544,0,0,1,3.7421,1.0413,3.5311,3.5311,0,0,1,1.2956,2.91v6.2259q0,.7241.5834.7234a1.7529,1.7529,0,0,0,.6883-.2128,2.9778,2.9778,0,0,0,.7415-.4827v1.9348a6.2765,6.2765,0,0,1-3.2132,1.0771,2.6472,2.6472,0,0,1-1.3833-.3005,1.6476,1.6476,0,0,1-.6724-1.0625,6.6185,6.6185,0,0,1-3.8537,1.363,3.3361,3.3361,0,0,1-2.3614-.9268,2.9358,2.9358,0,0,1-.986-2.2207,3.47,3.47,0,0,1,.978-2.6024,8.3385,8.3385,0,0,1,3.4312-1.6622l2.71-.79v-.5865q0-1.865-2.2577-1.8669a5.4117,5.4117,0,0,0-2.3029.5319,6.5205,6.5205,0,0,0-2.0837,1.5664v-3.01a7.7224,7.7224,0,0,1,4.9447-1.649m-2.0425,9.5637a1.48,1.48,0,0,0,.4412,1.1183,1.5311,1.5311,0,0,0,1.095.4215,3.2914,3.2914,0,0,0,2.2059-1.0079v-3.351a15.5551,15.5551,0,0,0-2.1979.8989,4.0161,4.0161,0,0,0-1.1708.8577A1.5746,1.5746,0,0,0,225.5731,110.2011Z" transform="translate(-2.4472 -1.1461)"/><path class="b" d="M243.87,100.6374a4.18,4.18,0,0,1,3.26,1.3431,5.0484,5.0484,0,0,1,1.22,3.5345v8.0929h-3.3355v-7.7525a2.9888,2.9888,0,0,0-.594-1.9614,1.9729,1.9729,0,0,0-1.6119-.722,2.5517,2.5517,0,0,0-1.4551.4561,6.8756,6.8756,0,0,0-1.5,1.5186v8.4612h-3.3488V100.8835h3.3488v1.7832a5.9824,5.9824,0,0,1,1.8989-1.5585,4.7855,4.7855,0,0,1,2.1182-.4708" transform="translate(-2.4472 -1.1461)"/><path class="b" d="M260.182,101.1693V94.5751h3.3355v19.0328h-5.8816a6.7451,6.7451,0,0,1-4.8809-1.7579,6.3353,6.3353,0,0,1-1.8325-4.7951,6.4384,6.4384,0,0,1,.85-3.27,6.1418,6.1418,0,0,1,2.3441-2.31,6.462,6.462,0,0,1,3.2185-.8378,8.5818,8.5818,0,0,1,2.8464.532m-1.7567,9.8774h1.7567v-7.3709a4.6633,4.6633,0,0,0-2.1514-.5319,3.53,3.53,0,0,0-2.675,1.0492,3.8261,3.8261,0,0,0-1.0019,2.7526Q254.3537,111.0468,258.4253,111.0468Z" transform="translate(-2.4472 -1.1461)"/><path class="b" d="M277.9607,94.5751V101.7a5.6436,5.6436,0,0,1,3.3647-1.0625,5.8117,5.8117,0,0,1,3.0444.8232,5.596,5.596,0,0,1,2.1222,2.3164,7.2692,7.2692,0,0,1,.7561,3.3324,6.5372,6.5372,0,0,1-1.867,4.9374,7.0193,7.0193,0,0,1-5.1042,1.8071,15.4269,15.4269,0,0,1-5.6636-1.0771V94.5751h3.3474m0,16.376a7.7354,7.7354,0,0,0,2.5076.3683,2.97,2.97,0,0,0,2.4424-1.1236,4.8307,4.8307,0,0,0,.9063-3.1143,4.2715,4.2715,0,0,0-.9116-2.867,3.0114,3.0114,0,0,0-2.41-1.07,3.1235,3.1235,0,0,0-1.28.2593,5.6636,5.6636,0,0,0-1.2545.8032Z" transform="translate(-2.4472 -1.1461)"/><path class="b" d="M294.4918,100.6374a5.8628,5.8628,0,0,1,3.7448,1.0413,3.5292,3.5292,0,0,1,1.293,2.91v6.2259c0,.4827.194.7234.586.7234a1.7531,1.7531,0,0,0,.6883-.2128,2.9861,2.9861,0,0,0,.7389-.4827v1.9348a6.265,6.265,0,0,1-3.2119,1.0771,2.6421,2.6421,0,0,1-1.382-.3005,1.6434,1.6434,0,0,1-.6737-1.0625,6.624,6.624,0,0,1-3.8524,1.363,3.3273,3.3273,0,0,1-2.3614-.9268,2.9383,2.9383,0,0,1-.9886-2.2207,3.4609,3.4609,0,0,1,.9807-2.6024,8.3294,8.3294,0,0,1,3.4311-1.6622l2.71-.79v-.5865q0-1.865-2.26-1.8669a5.4113,5.4113,0,0,0-2.3016.5319,6.5015,6.5015,0,0,0-2.0823,1.5664v-3.01a7.72,7.72,0,0,1,4.942-1.649m-2.0424,9.5637a1.4728,1.4728,0,0,0,.4438,1.1183,1.5224,1.5224,0,0,0,1.095.4215,3.2962,3.2962,0,0,0,2.2059-1.0079v-3.351a15.4255,15.4255,0,0,0-2.1979.8989,4.0334,4.0334,0,0,0-1.1734.8577A1.5745,1.5745,0,0,0,292.4494,110.2011Z" transform="translate(-2.4472 -1.1461)"/><path class="b" d="M310.6533,100.6374a3.0982,3.0982,0,0,1,1.3129.2992,7.4513,7.4513,0,0,1,1.5056,1.008l-1.1986,2.9308a4.4163,4.4163,0,0,0-2.3414-1.09,2.4921,2.4921,0,0,0-1.5309.58,4.099,4.099,0,0,0-1.2119,1.5318,4.3506,4.3506,0,0,0-.4571,1.9069v5.8044h-3.3514V100.8835h3.3514v3.2419h.0545a8.833,8.833,0,0,1,1.8378-2.6648,2.99,2.99,0,0,1,2.0291-.8232" transform="translate(-2.4472 -1.1461)"/></svg>